<svg fill="#000000" xmlns="http://www.w3.org/2000/svg"  viewBox="0 0 100 100" width="200px" height="200px"><path d="M 29.355469 17 C 22.543991 17 17 22.543991 17 29.355469 L 17 70.644531 C 17 77.456009 22.543991 83 29.355469 83 L 70.644531 83 C 77.456009 83 83 77.456009 83 70.644531 L 83 29.355469 C 83 22.543991 77.456009 17 70.644531 17 L 29.355469 17 z M 29.355469 19 L 70.644531 19 C 76.375054 19 81 23.624946 81 29.355469 L 81 35.027344 L 49.5 35.027344 A 0.50005 0.50005 0 1 0 49.5 36.027344 L 81 36.027344 L 81 70.644531 C 81 76.375054 76.375054 81 70.644531 81 L 29.355469 81 C 23.624946 81 19 76.375054 19 70.644531 L 19 36.027344 L 28.5 36.027344 A 0.50005 0.50005 0 1 0 28.5 35.027344 L 19 35.027344 L 19 29.355469 C 19 23.624946 23.624946 19 29.355469 19 z M 43.677734 23.027344 C 43.467734 23.027344 43.363281 23.161687 43.363281 23.429688 C 43.363281 23.552688 43.389359 23.653422 43.443359 23.732422 C 43.498359 23.812422 43.575734 23.851562 43.677734 23.851562 L 45.089844 23.851562 L 45.089844 28.658203 C 45.089844 29.687203 44.61125 30.201172 43.65625 30.201172 C 43.20825 30.201172 42.859375 30.08275 42.609375 29.84375 C 42.359375 29.60475 42.234375 29.293156 42.234375 28.910156 C 42.234375 28.700156 42.081344 28.595703 41.777344 28.595703 C 41.625344 28.595703 41.511547 28.626406 41.435547 28.691406 C 41.359547 28.757406 41.322266 28.872062 41.322266 29.039062 C 41.322266 29.633062 41.538656 30.113516 41.972656 30.478516 C 42.406656 30.844516 42.9785 31.027344 43.6875 31.027344 C 44.3825 31.027344 44.942234 30.836031 45.365234 30.457031 C 45.788234 30.077031 46 29.479156 46 28.660156 L 46 23.353516 C 46 23.252516 45.958 23.171281 45.875 23.113281 C 45.792 23.055281 45.695891 23.027344 45.587891 23.027344 L 43.677734 23.027344 z M 48.462891 23.027344 C 48.339891 23.027344 48.232578 23.053422 48.142578 23.107422 C 48.051578 23.162422 48.007812 23.239797 48.007812 23.341797 L 48.007812 28.660156 C 48.007812 29.479156 48.221344 30.077031 48.652344 30.457031 C 49.082344 30.836031 49.656047 31.027344 50.373047 31.027344 C 51.090047 31.027344 51.665609 30.836031 52.099609 30.457031 C 52.533609 30.077031 52.75 29.479156 52.75 28.660156 L 52.75 23.341797 C 52.75 23.239797 52.704281 23.162422 52.613281 23.107422 C 52.523281 23.053422 52.417922 23.027344 52.294922 23.027344 C 51.990922 23.027344 51.837891 23.131797 51.837891 23.341797 L 51.837891 28.660156 C 51.837891 29.175156 51.710031 29.559406 51.457031 29.816406 C 51.204031 30.073406 50.843047 30.201172 50.373047 30.201172 C 49.403047 30.201172 48.917969 29.689156 48.917969 28.660156 L 48.917969 23.341797 C 48.917969 23.239797 48.873203 23.162422 48.783203 23.107422 C 48.693203 23.053422 48.585891 23.027344 48.462891 23.027344 z M 55.455078 23.027344 C 55.332078 23.027344 55.225766 23.053422 55.134766 23.107422 C 55.044766 23.162422 55 23.239797 55 23.341797 L 55 30.636719 C 55 30.737719 55.040047 30.816047 55.123047 30.873047 C 55.205047 30.931047 55.302156 30.960938 55.410156 30.960938 L 58.873047 30.960938 C 58.967047 30.960938 59.040797 30.919937 59.091797 30.835938 C 59.141797 30.752938 59.167969 30.656828 59.167969 30.548828 C 59.167969 30.439828 59.142797 30.344719 59.091797 30.261719 C 59.041797 30.178719 58.967047 30.136719 58.873047 30.136719 L 55.910156 30.136719 L 55.910156 23.341797 C 55.910156 23.239797 55.866391 23.162422 55.775391 23.107422 C 55.685391 23.053422 55.578078 23.027344 55.455078 23.027344 z M 32.5 35.027344 A 0.50005 0.50005 0 1 0 32.5 36.027344 L 33.5 36.027344 A 0.50005 0.50005 0 1 0 33.5 35.027344 L 32.5 35.027344 z M 36.5 35.027344 A 0.50005 0.50005 0 1 0 36.5 36.027344 L 46.5 36.027344 A 0.50005 0.50005 0 1 0 46.5 35.027344 L 36.5 35.027344 z M 22.492188 39.019531 A 0.50005 0.50005 0 0 0 22 39.527344 L 22 69.197266 C 22 74.052495 25.947505 78 30.802734 78 L 69.197266 78 C 74.052495 78 78 74.052495 78 69.197266 L 78 50.527344 A 0.50005 0.50005 0 1 0 77 50.527344 L 77 69.197266 C 77 73.512037 73.512037 77 69.197266 77 L 30.802734 77 C 26.487963 77 23 73.512037 23 69.197266 L 23 39.527344 A 0.50005 0.50005 0 0 0 22.492188 39.019531 z M 77.492188 39.019531 A 0.50005 0.50005 0 0 0 77 39.527344 L 77 41.527344 A 0.50005 0.50005 0 1 0 78 41.527344 L 78 39.527344 A 0.50005 0.50005 0 0 0 77.492188 39.019531 z M 42.183594 42.027344 C 41.787594 42.027344 41.470422 42.238156 41.232422 42.660156 L 38.300781 47.494141 C 37.983781 47.891141 37.826172 48.233438 37.826172 48.523438 C 37.826172 48.761438 37.910984 48.973203 38.083984 49.158203 C 38.255984 49.343203 38.459266 49.4375 38.697266 49.4375 C 39.014266 49.4375 39.251156 49.265875 39.410156 48.921875 L 41.074219 46.068359 L 41.074219 70.115234 C 41.074219 70.696234 41.403453 70.986328 42.064453 70.986328 C 42.723453 70.986328 43.054688 70.696234 43.054688 70.115234 L 43.054688 42.859375 C 43.054688 42.305375 42.763594 42.027344 42.183594 42.027344 z M 49.005859 42.027344 C 48.768859 42.027344 48.549563 42.119687 48.351562 42.304688 C 48.153562 42.489688 48.054688 42.687438 48.054688 42.898438 L 48.054688 48.802734 C 48.054688 49.039734 48.154516 49.245016 48.353516 49.416016 C 48.551516 49.588016 48.782875 49.673828 49.046875 49.673828 C 49.310875 49.673828 49.540281 49.588016 49.738281 49.416016 C 49.936281 49.244016 50.035156 49.039734 50.035156 48.802734 L 50.035156 43.929688 L 62.039062 43.929688 L 62.039062 45.949219 L 49.837891 69.601562 C 49.731891 69.865563 49.679688 70.038188 49.679688 70.117188 C 49.679687 70.381188 49.795297 70.598531 50.029297 70.769531 C 50.262297 70.941531 50.535656 71.027344 50.847656 71.027344 C 51.130656 71.027344 51.362969 70.869734 51.542969 70.552734 L 63.78125 46.701172 C 63.94025 46.463172 64.021484 46.226281 64.021484 45.988281 L 64.021484 42.898438 C 64.021484 42.687437 63.914125 42.489688 63.703125 42.304688 C 63.492125 42.119687 63.281312 42.027344 63.070312 42.027344 L 49.005859 42.027344 z M 77.492188 43.019531 A 0.50005 0.50005 0 0 0 77 43.527344 L 77 47.527344 A 0.50005 0.50005 0 1 0 78 47.527344 L 78 43.527344 A 0.50005 0.50005 0 0 0 77.492188 43.019531 z"/></svg>